<mxfile host="app.diagrams.net" agent="Mozilla/5.0 (Macintosh; Intel Mac OS X 10_15_7) AppleWebKit/605.1.15 (KHTML, like Gecko) Version/17.6 Safari/605.1.15" version="25.0.3">
  <diagram name="Page-1" id="znlhpsGMKJCzECKC1Xu-">
    <mxGraphModel dx="462" dy="284" grid="1" gridSize="10" guides="1" tooltips="1" connect="1" arrows="1" fold="1" page="1" pageScale="1" pageWidth="850" pageHeight="1100" math="0" shadow="0">
      <root>
        <mxCell id="0" />
        <mxCell id="1" parent="0" />
        <mxCell id="G7ly_8i5-DSfhabBNma2-1" value="" style="rounded=0;whiteSpace=wrap;html=1;" vertex="1" parent="1">
          <mxGeometry x="160" y="280" width="640" height="40" as="geometry" />
        </mxCell>
        <mxCell id="G7ly_8i5-DSfhabBNma2-2" value="" style="endArrow=none;html=1;rounded=0;exitX=0.941;exitY=1.025;exitDx=0;exitDy=0;exitPerimeter=0;" edge="1" parent="1">
          <mxGeometry width="50" height="50" relative="1" as="geometry">
            <mxPoint x="779.8599999999999" y="320.5" as="sourcePoint" />
            <mxPoint x="779.98" y="279.5" as="targetPoint" />
          </mxGeometry>
        </mxCell>
        <mxCell id="G7ly_8i5-DSfhabBNma2-3" value="" style="endArrow=none;html=1;rounded=0;exitX=0.941;exitY=1.025;exitDx=0;exitDy=0;exitPerimeter=0;" edge="1" parent="1">
          <mxGeometry width="50" height="50" relative="1" as="geometry">
            <mxPoint x="740.86" y="321" as="sourcePoint" />
            <mxPoint x="740.86" y="280" as="targetPoint" />
          </mxGeometry>
        </mxCell>
        <mxCell id="G7ly_8i5-DSfhabBNma2-4" value="" style="endArrow=none;html=1;rounded=0;exitX=0.941;exitY=1.025;exitDx=0;exitDy=0;exitPerimeter=0;entryX=0.5;entryY=1;entryDx=0;entryDy=0;" edge="1" parent="1" target="G7ly_8i5-DSfhabBNma2-26">
          <mxGeometry width="50" height="50" relative="1" as="geometry">
            <mxPoint x="759.86" y="320" as="sourcePoint" />
            <mxPoint x="759.86" y="279" as="targetPoint" />
          </mxGeometry>
        </mxCell>
        <mxCell id="G7ly_8i5-DSfhabBNma2-5" value="" style="endArrow=none;html=1;rounded=0;" edge="1" parent="1">
          <mxGeometry width="50" height="50" relative="1" as="geometry">
            <mxPoint x="790" y="320" as="sourcePoint" />
            <mxPoint x="789.86" y="280" as="targetPoint" />
          </mxGeometry>
        </mxCell>
        <mxCell id="G7ly_8i5-DSfhabBNma2-9" value="" style="endArrow=none;html=1;rounded=0;exitX=0.941;exitY=1.025;exitDx=0;exitDy=0;exitPerimeter=0;" edge="1" parent="1">
          <mxGeometry width="50" height="50" relative="1" as="geometry">
            <mxPoint x="610" y="320" as="sourcePoint" />
            <mxPoint x="610" y="279" as="targetPoint" />
          </mxGeometry>
        </mxCell>
        <mxCell id="G7ly_8i5-DSfhabBNma2-10" value="" style="endArrow=none;html=1;rounded=0;exitX=0.941;exitY=1.025;exitDx=0;exitDy=0;exitPerimeter=0;" edge="1" parent="1">
          <mxGeometry width="50" height="50" relative="1" as="geometry">
            <mxPoint x="480" y="320.5" as="sourcePoint" />
            <mxPoint x="480" y="279.5" as="targetPoint" />
          </mxGeometry>
        </mxCell>
        <mxCell id="G7ly_8i5-DSfhabBNma2-11" value="" style="endArrow=none;html=1;rounded=0;exitX=0.941;exitY=1.025;exitDx=0;exitDy=0;exitPerimeter=0;" edge="1" parent="1">
          <mxGeometry width="50" height="50" relative="1" as="geometry">
            <mxPoint x="320" y="321" as="sourcePoint" />
            <mxPoint x="320" y="280" as="targetPoint" />
          </mxGeometry>
        </mxCell>
        <mxCell id="G7ly_8i5-DSfhabBNma2-12" value="Block size" style="text;html=1;align=center;verticalAlign=middle;whiteSpace=wrap;rounded=0;" vertex="1" parent="1">
          <mxGeometry x="210" y="320" width="60" height="30" as="geometry" />
        </mxCell>
        <mxCell id="G7ly_8i5-DSfhabBNma2-13" value="# of instructions in function" style="text;html=1;align=center;verticalAlign=middle;whiteSpace=wrap;rounded=0;" vertex="1" parent="1">
          <mxGeometry x="330" y="320" width="150" height="30" as="geometry" />
        </mxCell>
        <mxCell id="G7ly_8i5-DSfhabBNma2-14" value="Max trip count" style="text;html=1;align=center;verticalAlign=middle;whiteSpace=wrap;rounded=0;" vertex="1" parent="1">
          <mxGeometry x="470" y="320" width="140" height="30" as="geometry" />
        </mxCell>
        <mxCell id="G7ly_8i5-DSfhabBNma2-15" value="Loop depth" style="text;html=1;align=center;verticalAlign=middle;whiteSpace=wrap;rounded=0;" vertex="1" parent="1">
          <mxGeometry x="605" y="320" width="140" height="30" as="geometry" />
        </mxCell>
        <mxCell id="G7ly_8i5-DSfhabBNma2-19" value="0" style="text;html=1;align=center;verticalAlign=middle;whiteSpace=wrap;rounded=0;" vertex="1" parent="1">
          <mxGeometry x="785" y="250" width="30" height="30" as="geometry" />
        </mxCell>
        <mxCell id="G7ly_8i5-DSfhabBNma2-21" value="1" style="text;html=1;align=center;verticalAlign=middle;whiteSpace=wrap;rounded=0;" vertex="1" parent="1">
          <mxGeometry x="775" y="250" width="30" height="30" as="geometry" />
        </mxCell>
        <mxCell id="G7ly_8i5-DSfhabBNma2-24" value="2" style="text;html=1;align=center;verticalAlign=middle;whiteSpace=wrap;rounded=0;" vertex="1" parent="1">
          <mxGeometry x="765" y="250" width="30" height="30" as="geometry" />
        </mxCell>
        <mxCell id="G7ly_8i5-DSfhabBNma2-25" value="6" style="text;html=1;align=center;verticalAlign=middle;whiteSpace=wrap;rounded=0;" vertex="1" parent="1">
          <mxGeometry x="726" y="250" width="30" height="30" as="geometry" />
        </mxCell>
        <mxCell id="G7ly_8i5-DSfhabBNma2-26" value="4" style="text;html=1;align=center;verticalAlign=middle;whiteSpace=wrap;rounded=0;" vertex="1" parent="1">
          <mxGeometry x="745" y="250" width="30" height="30" as="geometry" />
        </mxCell>
        <mxCell id="G7ly_8i5-DSfhabBNma2-36" value="19" style="text;html=1;align=center;verticalAlign=middle;whiteSpace=wrap;rounded=0;" vertex="1" parent="1">
          <mxGeometry x="595" y="250" width="30" height="30" as="geometry" />
        </mxCell>
        <mxCell id="G7ly_8i5-DSfhabBNma2-37" value="32" style="text;html=1;align=center;verticalAlign=middle;whiteSpace=wrap;rounded=0;" vertex="1" parent="1">
          <mxGeometry x="465" y="250" width="30" height="30" as="geometry" />
        </mxCell>
        <mxCell id="G7ly_8i5-DSfhabBNma2-38" value="48" style="text;html=1;align=center;verticalAlign=middle;whiteSpace=wrap;rounded=0;" vertex="1" parent="1">
          <mxGeometry x="305" y="250" width="30" height="30" as="geometry" />
        </mxCell>
        <mxCell id="G7ly_8i5-DSfhabBNma2-39" value="64" style="text;html=1;align=center;verticalAlign=middle;whiteSpace=wrap;rounded=0;" vertex="1" parent="1">
          <mxGeometry x="145" y="250" width="30" height="30" as="geometry" />
        </mxCell>
        <mxCell id="G7ly_8i5-DSfhabBNma2-40" value="" style="endArrow=none;html=1;rounded=0;" edge="1" parent="1">
          <mxGeometry width="50" height="50" relative="1" as="geometry">
            <mxPoint x="620" y="400" as="sourcePoint" />
            <mxPoint x="750" y="320" as="targetPoint" />
          </mxGeometry>
        </mxCell>
        <mxCell id="G7ly_8i5-DSfhabBNma2-41" value="Is loop finite?" style="text;html=1;align=center;verticalAlign=middle;whiteSpace=wrap;rounded=0;" vertex="1" parent="1">
          <mxGeometry x="590" y="400" width="60" height="30" as="geometry" />
        </mxCell>
        <mxCell id="G7ly_8i5-DSfhabBNma2-42" value="" style="endArrow=none;html=1;rounded=0;" edge="1" parent="1">
          <mxGeometry width="50" height="50" relative="1" as="geometry">
            <mxPoint x="680" y="400" as="sourcePoint" />
            <mxPoint x="775" y="320" as="targetPoint" />
          </mxGeometry>
        </mxCell>
        <mxCell id="G7ly_8i5-DSfhabBNma2-43" value="Does loop have abnormal exits?" style="text;html=1;align=center;verticalAlign=middle;whiteSpace=wrap;rounded=0;" vertex="1" parent="1">
          <mxGeometry x="650" y="410" width="60" height="30" as="geometry" />
        </mxCell>
        <mxCell id="G7ly_8i5-DSfhabBNma2-44" value="" style="endArrow=none;html=1;rounded=0;" edge="1" parent="1">
          <mxGeometry width="50" height="50" relative="1" as="geometry">
            <mxPoint x="750" y="400" as="sourcePoint" />
            <mxPoint x="785" y="320" as="targetPoint" />
          </mxGeometry>
        </mxCell>
        <mxCell id="G7ly_8i5-DSfhabBNma2-45" value="Is instr in loop header?" style="text;html=1;align=center;verticalAlign=middle;whiteSpace=wrap;rounded=0;" vertex="1" parent="1">
          <mxGeometry x="725" y="410" width="60" height="30" as="geometry" />
        </mxCell>
        <mxCell id="G7ly_8i5-DSfhabBNma2-46" value="" style="endArrow=none;html=1;rounded=0;exitX=0.583;exitY=0;exitDx=0;exitDy=0;exitPerimeter=0;" edge="1" parent="1" source="G7ly_8i5-DSfhabBNma2-47">
          <mxGeometry width="50" height="50" relative="1" as="geometry">
            <mxPoint x="800" y="400" as="sourcePoint" />
            <mxPoint x="797.5" y="320" as="targetPoint" />
          </mxGeometry>
        </mxCell>
        <mxCell id="G7ly_8i5-DSfhabBNma2-47" value="Is instr in loop?" style="text;html=1;align=center;verticalAlign=middle;whiteSpace=wrap;rounded=0;" vertex="1" parent="1">
          <mxGeometry x="785" y="400" width="60" height="30" as="geometry" />
        </mxCell>
      </root>
    </mxGraphModel>
  </diagram>
</mxfile>
